<svg width="479" height="615" viewBox="0 0 479 615" fill="none" xmlns="http://www.w3.org/2000/svg">
<g filter="url(#filter0_d_622_225)">
<g clip-path="url(#clip0_622_225)">
<rect x="25" y="15" width="441" height="577" rx="220.5" fill="#F8F8F8"/>
<path d="M298.688 219.003C304.876 205.275 297.481 189.644 282.105 184.039C266.745 178.433 249.222 184.998 242.901 198.666L298.671 218.988L298.688 219.003Z" fill="#9BA7FF"/>
<path d="M208.627 272.147L208.895 272.342L229.503 176.245C180.993 188.31 168.702 244.691 208.61 272.147H208.627Z" fill="#FF6B71"/>
<path d="M402.634 506.574C417.682 506.574 429.882 495.67 429.882 482.22C429.882 468.77 417.682 457.866 402.634 457.866C387.585 457.866 375.385 468.77 375.385 482.22C375.385 495.67 387.585 506.574 402.634 506.574Z" fill="#FFD600"/>
<path d="M220.029 497.852L125.223 448.934L152.588 406.566C167.696 383.171 201.182 375.153 227.357 388.656C253.532 402.16 262.503 432.089 247.395 455.483L220.029 497.852Z" fill="#7F5EDD"/>
<path d="M194.76 267.022L217.481 374.658L112.278 347.622L194.76 267.022Z" fill="#9BA7FF"/>
<path d="M172.425 502.003L153.829 467.878C150.895 462.482 143.617 460.249 137.581 462.872L50.9905 500.579L172.425 502.003Z" fill="#978500"/>
<path d="M274.878 306.183C245.282 311.023 225.58 336.352 230.878 362.879C236.177 389.406 264.431 407.105 294.094 402.489L274.878 306.168V306.183Z" fill="#AFB100"/>
<path d="M280.16 305.778L267.5 226.242C284.939 224.024 301.103 234.874 303.585 250.461L311.751 301.761C312.992 309.555 306.921 316.778 298.202 317.888C289.483 318.997 281.4 313.571 280.16 305.778Z" fill="#7F5EDD"/>
<path d="M288.778 139.122L307.961 126.084L284.67 120.389L291.646 99.6916L269.042 107.335L261.094 86.9976L247.881 104.997L228.028 92.6927L229.168 114.289L205.039 114.754L220.096 131.569L200.914 144.608L224.205 150.288L217.246 171L239.832 163.356L247.781 183.694L261.011 165.679L280.847 177.999L279.707 156.402L303.853 155.938L288.778 139.122Z" fill="#FFD600"/>
<path d="M285.317 411.27L258.05 424.646L302.955 497.774L330.223 484.398L285.317 411.27Z" fill="#9BA7FF"/>
<path d="M327.59 422.256L300.323 435.632L330.262 484.388L357.53 471.012L327.59 422.256Z" fill="#9BA7FF"/>
<path d="M369.857 433.236L342.59 446.612L357.555 470.984L384.823 457.607L369.857 433.236Z" fill="#9BA7FF"/>
<path d="M318.592 306.857L294.53 361.979L327.345 373.414L319.564 391.234L352.38 402.669L344.599 420.489L378.437 432.283L402.483 377.161L369.667 365.726L377.448 347.906L344.65 336.471L352.413 318.652L318.592 306.857Z" fill="#FF6B71"/>
</g>
</g>
<defs>
<filter id="filter0_d_622_225" x="0" y="0" width="479" height="615" filterUnits="userSpaceOnUse" color-interpolation-filters="sRGB">
<feFlood flood-opacity="0" result="BackgroundImageFix"/>
<feColorMatrix in="SourceAlpha" type="matrix" values="0 0 0 0 0 0 0 0 0 0 0 0 0 0 0 0 0 0 127 0" result="hardAlpha"/>
<feOffset dx="-6" dy="4"/>
<feGaussianBlur stdDeviation="9.5"/>
<feComposite in2="hardAlpha" operator="out"/>
<feColorMatrix type="matrix" values="0 0 0 0 0 0 0 0 0 0 0 0 0 0 0 0 0 0 0.1 0"/>
<feBlend mode="normal" in2="BackgroundImageFix" result="effect1_dropShadow_622_225"/>
<feBlend mode="normal" in="SourceGraphic" in2="effect1_dropShadow_622_225" result="shape"/>
</filter>
<clipPath id="clip0_622_225">
<rect x="25" y="15" width="441" height="577" rx="220.5" fill="white"/>
</clipPath>
</defs>
</svg>
