<svg width="192" height="167" viewBox="0 0 192 167" fill="none" xmlns="http://www.w3.org/2000/svg">
<path d="M47.4103 83.3969L49.1595 88.4371L18.5593 99.0569L15.8683 91.3029C15.1506 89.2351 14.8747 87.3278 15.0331 85.5594C15.1915 83.7909 15.7045 82.1408 16.5938 80.6013C17.4831 79.0619 18.6981 77.6266 20.2528 76.2665C21.8075 74.9064 23.6365 73.5718 25.7397 72.2627C29.2738 70.0708 31.6041 67.8865 32.7521 65.7022C33.9002 63.5179 34.0598 61.2664 33.2525 58.9402L33.1179 58.5525C32.7143 57.3893 32.1243 56.315 31.3479 55.3295C30.5716 54.344 29.6173 53.5409 28.4851 52.9203C27.3528 52.2996 26.0725 51.9476 24.6151 51.85C23.1577 51.7525 21.5606 52.0172 19.7948 52.63C16.4785 53.7809 14.2672 55.6826 13.1395 58.3425C12.0118 61.0025 12.0417 64.0087 13.2078 67.3688L14.1946 70.212L8.76791 72.0953L7.64664 68.8644C6.92902 66.7967 6.58587 64.6955 6.61715 62.5609C6.64843 60.4263 7.07746 58.395 7.90427 56.467C8.73108 54.539 9.98555 52.8004 11.6677 51.2513C13.3498 49.7022 15.483 48.4792 18.0671 47.5824C20.6512 46.6856 23.1189 46.2877 25.3261 46.3905C27.5408 46.5148 29.5221 47.0097 31.2702 47.8752C33.0182 48.7406 34.4815 49.898 35.6816 51.3398C36.8817 52.7816 37.7662 54.357 38.3643 56.0801L38.7679 57.2432C39.9639 60.6895 39.9039 63.9925 38.5951 67.1737C37.2864 70.355 34.4389 73.2739 30.0602 75.9519C26.2396 78.2915 23.6144 80.5299 22.1921 82.6887C20.7698 84.8475 20.5482 87.3377 21.535 90.1809L22.2077 92.1194L47.3813 83.3829L47.4103 83.3969Z" fill="#FFD000"/>
<path d="M47.838 57.9326C45.8048 52.074 45.6272 47.0435 47.3054 42.841C48.9836 38.6386 52.3206 35.6705 57.3166 33.9366C62.3125 32.2028 66.7709 32.4655 70.6916 34.7248C74.6123 36.9841 77.5893 41.0431 79.6226 46.9017L83.121 56.982C85.214 63.013 85.4065 68.0865 83.6984 72.2028C81.9903 76.3191 78.6383 79.2441 73.6424 80.978C68.6464 82.7118 64.203 82.4922 60.3122 80.319C56.4214 78.1459 53.4295 74.0438 51.3364 68.0129L47.838 57.9326ZM71.909 76.053C75.3976 74.8423 77.5846 72.7318 78.4842 69.6925C79.3838 66.6533 79.0566 62.9296 77.5167 58.4926L74.2874 49.1877C73.5698 47.12 72.7041 45.3208 71.6829 43.7687C70.6617 42.2165 69.5074 40.9761 68.1768 40.0623C66.8678 39.1409 65.4407 38.5744 63.8879 38.341C62.3351 38.1076 60.7081 38.2862 58.9853 38.884C57.2626 39.4819 55.8102 40.3721 54.7573 41.5098C53.7045 42.6474 52.9351 43.9763 52.4999 45.503C52.043 47.0371 51.9053 48.726 52.0436 50.5845C52.182 52.443 52.6385 54.3842 53.3561 56.4519L56.5854 65.7568C58.1253 70.1939 60.1752 73.3196 62.7642 75.1482C65.3531 76.9768 68.3774 77.2787 71.8659 76.068L71.909 76.053ZM61.3234 58.8997C60.9347 57.7797 61.0074 56.6684 61.5417 55.5659C62.0759 54.4635 62.9029 53.7179 64.0227 53.3293C65.1425 52.9407 66.2535 53.0136 67.3559 53.5481C68.4583 54.0826 69.2038 54.9098 69.5925 56.0299C69.9812 57.1499 69.9084 58.2612 69.3742 59.3636C68.84 60.4661 68.013 61.2117 66.8932 61.6003C65.7734 61.9889 64.6623 61.916 63.56 61.3815C62.4576 60.847 61.7121 60.0197 61.3234 58.8997Z" fill="#FFD000"/>
<path d="M126.42 55.9766L128.169 61.0168L97.5686 71.6366L94.8775 63.8825C94.1599 61.8148 93.884 59.9075 94.0424 58.1391C94.2007 56.3706 94.7138 54.7204 95.6031 53.181C96.4924 51.6416 97.7073 50.2063 99.2621 48.8462C100.817 47.4861 102.646 46.1515 104.749 44.8424C108.283 42.6505 110.613 40.4662 111.761 38.2819C112.909 36.0976 113.069 33.8461 112.262 31.5198L112.127 31.1321C111.724 29.969 111.134 28.8947 110.357 27.9092C109.581 26.9237 108.627 26.1206 107.494 25.5C106.362 24.8793 105.082 24.5273 103.624 24.4297C102.167 24.3322 100.57 24.5969 98.804 25.2097C95.4877 26.3606 93.2765 28.2623 92.1488 30.9222C91.021 33.5821 91.051 36.5884 92.2171 39.9485L93.2038 42.7917L87.7772 44.675L86.6559 41.4441C85.9383 39.3764 85.5951 37.2752 85.6264 35.1406C85.6577 33.006 86.0867 30.9747 86.9135 29.0467C87.7404 27.1187 88.9948 25.3801 90.677 23.831C92.3591 22.2819 94.4923 21.0589 97.0764 20.1621C99.6605 19.2652 102.128 18.8674 104.335 18.9702C106.55 19.0945 108.531 19.5894 110.279 20.4549C112.027 21.3203 113.491 22.4777 114.691 23.9195C115.891 25.3612 116.776 26.9367 117.374 28.6598L117.777 29.8229C118.973 33.2691 118.913 36.5721 117.604 39.7534C116.296 42.9347 113.448 45.8536 109.069 48.5316C105.249 50.8712 102.624 53.1096 101.201 55.2684C99.7791 57.4272 99.5575 59.9174 100.544 62.7606L101.217 64.6991L126.391 55.9626L126.42 55.9766Z" fill="#FFD000"/>
<path d="M140.055 31.7207L137.453 24.2251L148.887 9.68659L148.618 8.91119L123.057 17.7822L121.307 12.7421L151.52 2.25676L154.391 10.5278L142.957 25.0663L143.226 25.8417L145.81 24.9449C147.533 24.347 149.288 24.0515 151.076 24.0585C152.864 24.0655 154.548 24.3982 156.149 25.0492C157.75 25.7001 159.197 26.6702 160.496 27.981C161.795 29.2918 162.789 30.974 163.507 33.0418L163.911 34.2049C164.583 36.1434 164.824 38.0872 164.632 40.0363C164.439 41.9854 163.863 43.8022 162.911 45.5082C161.959 47.2143 160.681 48.744 159.054 50.105C157.427 51.466 155.522 52.5131 153.326 53.2754C150.785 54.1573 148.368 54.5618 146.074 54.4889C143.781 54.416 141.692 53.9585 139.8 53.0947C137.908 52.231 136.278 51.0108 134.889 49.4416C133.499 47.8723 132.461 46.0609 131.743 43.9931L130.532 40.5038L135.959 38.6205L137.035 41.7221C137.603 43.3591 138.362 44.7125 139.363 45.789C140.343 46.8729 141.47 47.6883 142.746 48.2351C144.021 48.7819 145.394 49.0535 146.894 49.064C148.393 49.0745 149.919 48.8107 151.469 48.2726C152.89 47.7794 154.122 47.0866 155.185 46.1867C156.248 45.2869 157.079 44.2745 157.691 43.1206C158.304 41.9667 158.671 40.7293 158.792 39.4083C158.912 38.0874 158.752 36.7915 158.304 35.4992L158.169 35.1115C157.227 32.3976 155.633 30.5857 153.38 29.6543C151.126 28.7229 148.711 28.7164 146.127 29.6132L140.055 31.7207Z" fill="#FFD000"/>
<path d="M62.141 142.528C63.7706 147.223 63.8702 151.195 62.4257 154.471C60.9812 157.748 58.0479 160.142 53.6118 161.681C49.1758 163.221 45.2611 163.204 41.8389 161.616C38.4167 160.028 35.9053 156.894 34.2757 152.198L33.0647 148.709L38.4914 146.826L39.7024 150.315C40.6891 153.158 42.2136 155.187 44.2759 156.402C46.3383 157.617 48.8769 157.701 51.8917 156.655C54.9065 155.609 56.7178 154.015 57.3257 151.873C57.9336 149.732 57.7442 147.239 56.7575 144.396L47.5256 117.795L42.8742 119.409L41.125 114.369L55.0577 109.534L56.8069 114.574L52.9307 115.919L62.1626 142.52L62.141 142.528Z" fill="#FFD000"/>
<path d="M67.7629 105.125L78.1609 135.085C79.4317 138.747 81.2283 141.213 83.5799 142.496C85.9314 143.78 88.7508 143.839 92.0671 142.688C95.3834 141.537 97.5599 139.744 98.6108 137.28C99.6616 134.815 99.5447 131.767 98.2739 128.105L87.8759 98.1444L93.3025 96.261L103.701 126.222C105.524 131.477 105.537 135.962 103.737 139.676C101.938 143.389 98.6259 146.083 93.8022 147.757C88.9786 149.431 84.7101 149.368 80.9969 147.568C77.2837 145.767 74.5151 142.239 72.6912 136.984L62.2932 107.023L67.7199 105.14L67.7629 105.125Z" fill="#FFD000"/>
<path d="M103.187 92.8307L108.613 90.9474L122.555 131.118L146.178 122.919L147.927 127.959L118.877 138.041L103.194 92.8522L103.187 92.8307Z" fill="#FFD000"/>
<path d="M164.311 104.463L163.148 104.867L138.848 80.4546L144.92 78.347L165.043 98.996L165.819 98.7269L168.823 70.0514L174.896 67.9439L170.943 102.161L169.78 102.565L175.29 118.439L169.863 120.322L164.354 104.448L164.311 104.463Z" fill="#FFD000"/>
</svg>
