<svg width="208" height="208" viewBox="0 0 208 208" fill="none" xmlns="http://www.w3.org/2000/svg">
<path d="M75.4719 207.318C89.0128 207.318 99.9898 196.349 99.9898 182.818C99.9898 169.287 89.0128 158.318 75.4719 158.318C61.9311 158.318 50.9541 169.287 50.9541 182.818C50.9541 196.349 61.9311 207.318 75.4719 207.318Z" fill="#FF6B71"/>
<path opacity="0.5" d="M207.906 207.129H109.394V157.92C109.394 130.735 131.434 108.711 158.639 108.711C185.844 108.711 207.885 130.735 207.885 157.92V207.129H207.906Z" fill="#FF6B71"/>
<path d="M158.177 108.207L207.78 206.647H109.268L158.177 108.207Z" fill="#FF6B71"/>
<path opacity="0.5" d="M50.8697 100.299L100.472 1.85974H1.95996L50.8697 100.299Z" fill="#FF6B71"/>
<path d="M1.51953 1.31436V88.8255C1.51953 94.8666 6.41049 99.7539 12.456 99.7539H50.891L1.98134 1.31436H1.51953Z" fill="#FF6B71"/>
<path d="M50.8701 99.733H89.0953C95.1408 99.733 100.032 94.8456 100.032 88.8045V2.21631L50.8911 99.7539L50.8701 99.733Z" fill="#FF6B71"/>
<path d="M49.9043 108.228C22.8256 108.354 0.910645 130.337 0.910645 157.437C0.910645 184.538 22.8256 206.542 49.9043 206.647V108.228Z" fill="#FF6B71"/>
<path d="M176.188 29.2751H109.667C109.667 13.4384 122.513 0.5802 138.383 0.5802H204.904C204.904 16.417 192.057 29.2751 176.188 29.2751Z" fill="#FF6B71"/>
<path d="M176.188 63.8643H109.667C109.667 48.0275 122.513 35.1693 138.383 35.1693H204.904C204.904 51.0061 192.057 63.8643 176.188 63.8643Z" fill="#FF6B71"/>
<path d="M190.546 98.873H109.667C109.667 83.0362 122.513 70.178 138.383 70.178H190.546C198.481 70.178 204.904 76.5966 204.904 84.5255C204.904 92.4543 198.481 98.873 190.546 98.873Z" fill="#FF6B71"/>
<path d="M98.877 156.871H98.6671C71.7353 156.871 49.9043 135.056 49.9043 108.144C76.8151 108.249 98.6251 129.98 98.877 156.871Z" fill="#FF6B71"/>
</svg>
