<svg width="149" height="111" viewBox="0 0 149 111" fill="none" xmlns="http://www.w3.org/2000/svg">
<path d="M32.3544 40.6832V45.5916H2.52581V38.0403C2.52581 36.0266 2.86166 34.2856 3.53338 32.7963C4.2051 31.3071 5.14971 30.0275 6.3882 28.9578C7.62669 27.888 9.11707 27.007 10.8803 26.2938C12.6436 25.5806 14.6378 24.9723 16.8629 24.4689C20.5993 23.6299 23.2862 22.4343 24.9445 20.8821C26.6028 19.3298 27.4215 17.421 27.4215 15.1557V14.7781C27.4215 13.6454 27.2326 12.5337 26.8547 11.4429C26.4769 10.3522 25.8891 9.36633 25.0915 8.48534C24.2938 7.60436 23.2862 6.91216 22.0477 6.38776C20.8092 5.86337 19.3398 5.61165 17.6186 5.61165C14.3859 5.61165 11.8879 6.59752 10.1037 8.56925C8.31941 10.541 7.43777 13.163 7.43777 16.4352V19.204H2.14795V16.0576C2.14795 14.0439 2.48383 12.1142 3.15555 10.2683C3.82728 8.42241 4.81384 6.7863 6.1153 5.35995C7.41676 3.93359 9.03309 2.80089 10.9643 1.96186C12.8955 1.12283 15.1206 0.703308 17.6395 0.703308C20.1585 0.703308 22.4255 1.10185 24.3148 1.85698C26.204 2.63309 27.7783 3.6609 29.0378 4.94043C30.2973 6.21995 31.2209 7.66729 31.8296 9.28243C32.4384 10.8976 32.7323 12.5337 32.7323 14.2117V15.3444C32.7323 18.7006 31.6827 21.5533 29.5836 23.9236C27.4845 26.2938 24.1258 27.9719 19.5078 28.9787C15.4774 29.8597 12.5177 31.0134 10.6285 32.4607C8.73924 33.9081 7.79461 36.0056 7.79461 38.7744V40.6623H32.3334L32.3544 40.6832Z" fill="#FFD000"/>
<path d="M40.415 18.6796C40.415 12.9742 41.7795 8.54828 44.5083 5.4019C47.2372 2.25553 51.0366 0.682343 55.9066 0.682343C60.7766 0.682343 64.576 2.25553 67.3049 5.4019C70.0338 8.54828 71.3982 12.9742 71.3982 18.6796V28.4963C71.3982 34.3695 70.0338 38.8374 67.3049 41.8999C64.576 44.9623 60.7766 46.4936 55.9066 46.4936C51.0366 46.4936 47.2372 44.9623 44.5083 41.8999C41.7795 38.8374 40.415 34.3695 40.415 28.4963V18.6796ZM55.8856 41.6901C59.2862 41.6901 61.8262 40.5155 63.5265 38.1452C65.2267 35.7749 66.0664 32.4398 66.0664 28.1187V19.0572C66.0664 17.0435 65.8565 15.2186 65.4367 13.5615C65.0168 11.9044 64.3871 10.4781 63.5055 9.28244C62.6448 8.08682 61.5742 7.16388 60.2938 6.49265C59.0133 5.82142 57.5439 5.48581 55.8646 5.48581C54.1853 5.48581 52.653 5.82142 51.3935 6.49265C50.134 7.16388 49.0634 8.08682 48.2238 9.28244C47.3631 10.4781 46.7334 11.9044 46.2926 13.5615C45.8518 15.2186 45.6629 17.0435 45.6629 19.0572V28.1187C45.6629 32.4398 46.5025 35.7749 48.2028 38.1452C49.9031 40.5155 52.443 41.6901 55.8436 41.6901H55.8856ZM51.8553 23.588C51.8553 22.4972 52.2541 21.5533 53.0518 20.7562C53.8494 19.9591 54.7941 19.5606 55.8856 19.5606C56.9772 19.5606 57.9218 19.9591 58.7194 20.7562C59.5171 21.5533 59.9159 22.4972 59.9159 23.588C59.9159 24.6787 59.5171 25.6226 58.7194 26.4197C57.9218 27.2168 56.9772 27.6153 55.8856 27.6153C54.7941 27.6153 53.8494 27.2168 53.0518 26.4197C52.2541 25.6226 51.8553 24.6787 51.8553 23.588Z" fill="#FFD000"/>
<path d="M109.372 40.6832V45.5916H79.5429V38.0403C79.5429 36.0266 79.8788 34.2856 80.5505 32.7963C81.2222 31.3071 82.1668 30.0275 83.4053 28.9578C84.6438 27.888 86.1342 27.007 87.8974 26.2938C89.6607 25.5806 91.6549 24.9723 93.8799 24.4689C97.6164 23.6299 100.303 22.4343 101.962 20.8821C103.62 19.3298 104.439 17.421 104.439 15.1557V14.7781C104.439 13.6454 104.25 12.5337 103.872 11.4429C103.494 10.3522 102.906 9.36633 102.109 8.48534C101.311 7.60436 100.303 6.91216 99.0648 6.38776C97.8263 5.86337 96.3569 5.61165 94.6356 5.61165C91.403 5.61165 88.905 6.59752 87.1208 8.56925C85.3365 10.541 84.4549 13.163 84.4549 16.4352V19.204H79.165V16.0576C79.165 14.0439 79.5009 12.1142 80.1726 10.2683C80.8443 8.42241 81.8309 6.7863 83.1324 5.35995C84.4339 3.93359 86.0502 2.80089 87.9814 1.96186C89.9126 1.12283 92.1377 0.703308 94.6566 0.703308C97.1756 0.703308 99.4426 1.10185 101.332 1.85698C103.221 2.63309 104.795 3.6609 106.055 4.94043C107.314 6.21995 108.238 7.66729 108.847 9.28243C109.455 10.8976 109.749 12.5337 109.749 14.2117V15.3444C109.749 18.7006 108.7 21.5533 106.601 23.9236C104.502 26.2938 101.143 27.9719 96.5249 28.9787C92.4945 29.8597 89.5348 31.0134 87.6455 32.4607C85.7563 33.9081 84.8117 36.0056 84.8117 38.7744V40.6623H109.351L109.372 40.6832Z" fill="#FFD000"/>
<path d="M128.558 23.7138V16.4142L142.895 7.2268V6.47167H117.978V1.56332H147.429V9.61805L133.092 18.8055V19.5606H135.611C137.29 19.5606 138.906 19.8333 140.46 20.3786C142.013 20.924 143.377 21.7211 144.574 22.7699C145.77 23.8187 146.736 25.0982 147.471 26.6294C148.205 28.1607 148.562 29.9227 148.562 31.9363V33.069C148.562 34.9569 148.184 36.7188 147.429 38.3549C146.673 39.991 145.623 41.3964 144.28 42.5921C142.937 43.7877 141.362 44.7316 139.536 45.4238C137.71 46.116 135.737 46.4516 133.595 46.4516C131.119 46.4516 128.893 46.074 126.92 45.3189C124.947 44.5638 123.268 43.536 121.882 42.2145C120.497 40.893 119.447 39.3408 118.713 37.5579C117.978 35.7749 117.621 33.8871 117.621 31.8734V28.4753H122.911V31.4958C122.911 33.09 123.163 34.4954 123.709 35.733C124.233 36.9705 124.968 38.0193 125.913 38.8793C126.857 39.7393 127.97 40.3896 129.271 40.8511C130.573 41.3125 131.979 41.5433 133.491 41.5433C134.876 41.5433 136.156 41.3125 137.353 40.8511C138.549 40.3896 139.578 39.7603 140.46 38.9423C141.341 38.1242 142.034 37.1593 142.538 36.0476C143.042 34.9359 143.293 33.7612 143.293 32.5027V32.1251C143.293 29.4822 142.454 27.4265 140.774 25.9372C139.095 24.448 136.996 23.7138 134.477 23.7138H128.558Z" fill="#FFD000"/>
<path d="M27.3166 96.5209C27.3166 101.094 26.204 104.576 23.9579 106.988C21.7119 109.4 18.4372 110.596 14.113 110.596C9.7888 110.596 6.38822 109.4 3.89026 106.988C1.39229 104.576 0.153809 101.094 0.153809 96.5209V93.1228H5.44362V96.5209C5.44362 99.2897 6.15731 101.513 7.58471 103.191C9.01212 104.869 11.1952 105.708 14.134 105.708C17.0728 105.708 19.13 104.869 20.3055 103.191C21.481 101.513 22.0687 99.2897 22.0687 96.5209V70.6158H17.5346V65.7074H31.116V70.6158H27.3375V96.5209H27.3166Z" fill="#FFD000"/>
<path d="M43.5007 65.7074V94.8848C43.5007 98.4507 44.3194 101.136 45.9777 102.961C47.636 104.785 50.071 105.687 53.3037 105.687C56.5363 105.687 58.9713 104.785 60.6296 102.961C62.2879 101.136 63.1066 98.4507 63.1066 94.8848V65.7074H68.3964V94.8848C68.3964 100.003 67.053 103.904 64.3661 106.589C61.6792 109.274 57.9847 110.617 53.2827 110.617C48.5806 110.617 44.8862 109.274 42.1993 106.589C39.5124 103.904 38.1689 100.003 38.1689 94.8848V65.7074H43.4588H43.5007Z" fill="#FFD000"/>
<path d="M78.0317 65.7074H83.3215V104.827H106.349V109.736H78.0317V65.7284V65.7074Z" fill="#FFD000"/>
<path d="M127.697 94.2555H126.563L112.793 65.7074H118.712L129.985 89.7248H130.741L142.013 65.7074H147.932L134.162 94.2555H133.029V109.715H127.739V94.2555H127.697Z" fill="#FFD000"/>
</svg>
