<svg width="287" height="287" viewBox="0 0 287 287" fill="none" xmlns="http://www.w3.org/2000/svg">
<path d="M150.923 259.502C164.814 254.681 172.166 239.509 167.344 225.615C162.522 211.721 147.352 204.365 133.461 209.186C119.57 214.007 112.218 229.179 117.04 243.073C121.862 256.967 137.032 264.323 150.923 259.502Z" fill="#FF6B71"/>
<path opacity="0.5" d="M286.716 212.157L185.655 247.231L168.119 196.7C158.431 168.785 173.193 138.322 201.101 128.636C229.01 118.951 259.469 133.72 269.157 161.634L286.694 212.165L286.716 212.157Z" fill="#FF6B71"/>
<path d="M200.448 128.284L286.414 211.707L185.354 246.78L200.448 128.284Z" fill="#FF6B71"/>
<path opacity="0.5" d="M87.5468 158.368L103.351 39.6254L2.29102 74.6985L87.5468 158.368Z" fill="#FF6B71"/>
<path d="M1.64453 74.2955L32.831 164.156C34.9838 170.36 41.743 173.637 47.9449 171.485L87.3741 157.801L2.11829 74.1311L1.64453 74.2955Z" fill="#FF6B71"/>
<path d="M87.3449 157.787L126.559 144.177C132.761 142.025 136.036 135.265 133.884 129.062L103.026 40.1485L87.3739 157.801L87.3449 157.787Z" fill="#FF6B71"/>
<path d="M89.3818 166.854C61.6475 176.624 46.9997 206.999 56.6576 234.828C66.3155 262.656 96.6388 277.448 124.455 267.915L89.3818 166.854Z" fill="#FF6B71"/>
<path d="M190.796 40.8201L122.553 64.5036C116.91 48.2416 125.506 30.4644 141.786 24.8144L210.028 1.13085C215.672 17.3929 207.075 35.1701 190.796 40.8201Z" fill="#FF6B71"/>
<path d="M203.122 76.3379L134.88 100.021C129.236 83.7595 137.833 65.9822 154.113 60.3323L222.355 36.6487C227.998 52.9107 219.402 70.688 203.122 76.3379Z" fill="#FF6B71"/>
<path d="M230.327 107.175L147.356 135.97C141.712 119.708 150.309 101.931 166.589 96.281L220.101 77.7093C228.241 74.8844 237.118 79.1884 239.944 87.3302C242.769 95.472 238.467 104.35 230.327 107.175Z" fill="#FF6B71"/>
<path d="M156.956 199.367L156.741 199.442C129.113 209.03 98.9427 194.402 89.3521 166.768C116.996 157.294 147.115 171.844 156.956 199.367Z" fill="#FF6B71"/>
</svg>
