<svg width="47" height="47" viewBox="0 0 47 47" fill="none" xmlns="http://www.w3.org/2000/svg">
<g clip-path="url(#clip0_615_794)">
<path d="M16.9294 47C20.0049 47 22.498 44.5052 22.498 41.4278C22.498 38.3503 20.0049 35.8556 16.9294 35.8556C13.854 35.8556 11.3608 38.3503 11.3608 41.4278C11.3608 44.5052 13.854 47 16.9294 47Z" fill="#7F5EDD"/>
<path opacity="0.5" d="M47.0002 46.9593H24.6343V35.7691C24.6343 29.5913 29.6384 24.5788 35.8172 24.5788C41.991 24.5788 47.0002 29.5862 47.0002 35.7691V46.9593Z" fill="#7F5EDD"/>
<path d="M35.71 24.4669L46.9693 46.8473H24.6084L35.71 24.4669Z" fill="#7F5EDD"/>
<path opacity="0.5" d="M11.3459 22.6705L22.6052 0.29007H0.239258L11.3459 22.6705Z" fill="#7F5EDD"/>
<path d="M0.137207 0.162842V20.06C0.137207 21.434 1.24584 22.5433 2.61892 22.5433H11.3405L0.238917 0.162842H0.137207Z" fill="#7F5EDD"/>
<path d="M11.3457 22.5433H20.0215C21.3946 22.5433 22.5032 21.434 22.5032 20.06V0.366394L11.3457 22.5382V22.5433Z" fill="#7F5EDD"/>
<path d="M11.1219 24.472C4.9736 24.4974 0 29.4997 0 35.6622C0 41.8247 4.9736 46.827 11.1219 46.8524V24.477V24.472Z" fill="#7F5EDD"/>
<path d="M39.7992 6.52382H24.6953C24.6953 2.92096 27.6144 0 31.2149 0H46.3188C46.3188 3.60286 43.3997 6.52382 39.7992 6.52382Z" fill="#7F5EDD"/>
<path d="M39.7992 14.386H24.6953C24.6953 10.7831 27.6144 7.86218 31.2149 7.86218H46.3188C46.3188 11.465 43.3997 14.386 39.7992 14.386Z" fill="#7F5EDD"/>
<path d="M43.059 22.3448H24.6953C24.6953 18.742 27.6144 15.821 31.2149 15.821H43.059C44.8592 15.821 46.3188 17.2815 46.3188 19.0829C46.3188 20.8844 44.8592 22.3448 43.059 22.3448Z" fill="#7F5EDD"/>
<path d="M22.4322 35.8556L11.1221 24.5381H22.4322V35.8556Z" fill="#7F5EDD"/>
</g>
<defs>
<clipPath id="clip0_615_794">
<rect width="47" height="47" fill="white"/>
</clipPath>
</defs>
</svg>
