<svg width="47" height="47" viewBox="0 0 47 47" fill="none" xmlns="http://www.w3.org/2000/svg">
<g clip-path="url(#clip0_615_428)">
<path d="M16.9296 47C20.005 47 22.4982 44.5052 22.4982 41.4277C22.4982 38.3503 20.005 35.8555 16.9296 35.8555C13.8541 35.8555 11.361 38.3503 11.361 41.4277C11.361 44.5052 13.8541 47 16.9296 47Z" fill="#7F5EDD"/>
<path opacity="0.5" d="M47 46.9593H24.634V35.769C24.634 29.5912 29.6381 24.5788 35.817 24.5788C41.9908 24.5788 47 29.5862 47 35.769V46.9593Z" fill="#7F5EDD"/>
<path d="M35.7102 24.4668L46.9695 46.8473H24.6086L35.7102 24.4668Z" fill="#7F5EDD"/>
<path opacity="0.5" d="M11.3457 22.6705L22.605 0.290039H0.239014L11.3457 22.6705Z" fill="#7F5EDD"/>
<path d="M0.137329 0.162811V20.06C0.137329 21.4339 1.24596 22.5433 2.61904 22.5433H11.3406L0.239039 0.162811H0.137329Z" fill="#7F5EDD"/>
<path d="M11.3457 22.5433H20.0215C21.3946 22.5433 22.5032 21.4339 22.5032 20.06V0.366364L11.3457 22.5382V22.5433Z" fill="#7F5EDD"/>
<path d="M11.1219 24.4719C4.9736 24.4974 0 29.4996 0 35.6622C0 41.8247 4.9736 46.8269 11.1219 46.8524V24.477V24.4719Z" fill="#7F5EDD"/>
<path d="M39.7989 6.52379H24.6951C24.6951 2.92093 27.6141 -3.05176e-05 31.2147 -3.05176e-05H46.3185C46.3185 3.60283 43.3995 6.52379 39.7989 6.52379Z" fill="#7F5EDD"/>
<path d="M39.7989 14.386H24.6951C24.6951 10.7831 27.6141 7.86215 31.2147 7.86215H46.3185C46.3185 11.465 43.3995 14.386 39.7989 14.386Z" fill="#7F5EDD"/>
<path d="M43.0587 22.3448H24.6951C24.6951 18.7419 27.6141 15.821 31.2147 15.821H43.0587C44.859 15.821 46.3185 17.2815 46.3185 19.0829C46.3185 20.8843 44.859 22.3448 43.0587 22.3448Z" fill="#7F5EDD"/>
<path d="M22.4321 35.8555L11.1219 24.5381H22.4321V35.8555Z" fill="#7F5EDD"/>
</g>
<defs>
<clipPath id="clip0_615_428">
<rect width="47" height="47" fill="white"/>
</clipPath>
</defs>
</svg>
